<svg width="197" height="139" viewBox="0 0 197 139" fill="none" xmlns="http://www.w3.org/2000/svg">
<path d="M1.5 122L17 22V122H1.5Z" fill="white" stroke="black"/>
<path d="M18.4039 15.0046L17.5 15.0919V15.9191L2 111.133V1.5H158.242L18.4039 15.0046ZM39.2579 15L177.709 1.62938L174.578 15H39.2579ZM19.5 17H174.11L154.184 102.1L19.5 120.029V17ZM17.5 122.5H16.0907L17.5 122.312V122.5ZM176.632 15L178 9.15716V15H176.632ZM180 123.5V17H195.5V138H19.5V124.5H179H180V123.5ZM176.164 17H178V122.5H19.5V122.046L155.132 103.991L155.816 103.9L155.974 103.228L176.164 17Z" fill="#F77B63" stroke="black" stroke-width="2"/>
<path d="M172.681 15.5H48.1368L175.563 3.19406L172.681 15.5Z" fill="#F43E54" stroke="black" stroke-width="3"/>
<path d="M175.5 19L155.5 100L21 121.5H175.5V19Z" fill="white" stroke="black"/>
</svg>
