<svg width="80" height="80" viewBox="0 0 80 80" fill="none" xmlns="http://www.w3.org/2000/svg">
<circle cx="40" cy="40" r="40" fill="black"/>
<path d="M26.7559 47V21.4062H35.123C37.9004 21.4062 39.9863 21.9805 41.3809 23.1289C42.7871 24.2773 43.4902 25.9766 43.4902 28.2266C43.4902 29.4219 43.1504 30.4824 42.4707 31.4082C41.791 32.3223 40.8652 33.0312 39.6934 33.5352C41.0762 33.9219 42.166 34.6602 42.9629 35.75C43.7715 36.8281 44.1758 38.1172 44.1758 39.6172C44.1758 41.9141 43.4316 43.7188 41.9434 45.0312C40.4551 46.3438 38.3516 47 35.6328 47H26.7559ZM30.1309 35.0293V44.2402H35.7031C37.2734 44.2402 38.5098 43.8359 39.4121 43.0273C40.3262 42.207 40.7832 41.082 40.7832 39.6523C40.7832 36.5703 39.1074 35.0293 35.7559 35.0293H30.1309ZM30.1309 32.3223H35.2285C36.7051 32.3223 37.8828 31.9531 38.7617 31.2148C39.6523 30.4766 40.0977 29.4746 40.0977 28.209C40.0977 26.8027 39.6875 25.7832 38.8672 25.1504C38.0469 24.5059 36.7988 24.1836 35.123 24.1836H30.1309V32.3223Z" fill="#F43E54"/>
<path d="M54.3145 15.2344H60.9111V50.4736C60.9111 55.236 59.4756 58.9616 56.6045 61.6504C53.7562 64.3392 49.9508 65.6836 45.1885 65.6836C40.2438 65.6836 36.3929 64.4189 33.6357 61.8896C30.8786 59.3604 29.5 55.8171 29.5 51.2598H36.0625C36.0625 54.1081 36.8372 56.3298 38.3867 57.9248C39.959 59.5199 42.2262 60.3174 45.1885 60.3174C47.9001 60.3174 50.0876 59.4629 51.751 57.7539C53.4372 56.0449 54.2917 53.6523 54.3145 50.5762V15.2344Z" fill="white"/>
</svg>
