<svg width="473" height="169" viewBox="0 0 473 169" fill="none" xmlns="http://www.w3.org/2000/svg">
<path d="M186.117 160C185.957 160 185.821 159.952 185.709 159.856C185.613 159.744 185.565 159.608 185.565 159.448V143.776C185.565 143.6 185.613 143.464 185.709 143.368C185.821 143.256 185.957 143.2 186.117 143.2H192.693C194.405 143.2 195.693 143.608 196.557 144.424C197.421 145.24 197.853 146.312 197.853 147.64C197.853 148.536 197.645 149.28 197.229 149.872C196.829 150.464 196.349 150.896 195.789 151.168C196.461 151.504 197.029 152.024 197.493 152.728C197.957 153.432 198.189 154.24 198.189 155.152C198.189 156.048 197.981 156.864 197.565 157.6C197.165 158.336 196.565 158.92 195.765 159.352C194.965 159.784 194.005 160 192.885 160H186.117ZM192.333 150.304C193.341 150.304 194.109 150.072 194.637 149.608C195.181 149.144 195.453 148.496 195.453 147.664C195.453 146.848 195.189 146.224 194.661 145.792C194.133 145.36 193.357 145.144 192.333 145.144H187.917V150.304H192.333ZM192.573 158.056C193.581 158.056 194.365 157.784 194.925 157.24C195.501 156.696 195.789 156 195.789 155.152C195.789 154.272 195.501 153.568 194.925 153.04C194.365 152.496 193.581 152.224 192.573 152.224H187.917V158.056H192.573ZM205.94 160.24C204.42 160.24 203.244 159.752 202.412 158.776C201.58 157.784 201.164 156.472 201.164 154.84V148.072C201.164 147.912 201.212 147.784 201.308 147.688C201.42 147.576 201.556 147.52 201.716 147.52H202.916C203.076 147.52 203.204 147.576 203.3 147.688C203.412 147.784 203.468 147.912 203.468 148.072V154.72C203.468 157.104 204.508 158.296 206.588 158.296C207.596 158.296 208.396 157.984 208.988 157.36C209.58 156.72 209.876 155.84 209.876 154.72V148.072C209.876 147.912 209.924 147.784 210.02 147.688C210.132 147.576 210.268 147.52 210.428 147.52H211.628C211.788 147.52 211.916 147.576 212.012 147.688C212.108 147.784 212.156 147.912 212.156 148.072V159.448C212.156 159.608 212.108 159.744 212.012 159.856C211.916 159.952 211.788 160 211.628 160H210.5C210.34 160 210.204 159.952 210.092 159.856C209.996 159.744 209.948 159.608 209.948 159.448V158.392C209.5 159 208.956 159.464 208.316 159.784C207.676 160.088 206.884 160.24 205.94 160.24ZM216.297 160C216.137 160 216.001 159.952 215.889 159.856C215.793 159.744 215.745 159.608 215.745 159.448V143.512C215.745 143.352 215.793 143.224 215.889 143.128C216.001 143.016 216.137 142.96 216.297 142.96H217.425C217.585 142.96 217.713 143.016 217.809 143.128C217.921 143.224 217.977 143.352 217.977 143.512V159.448C217.977 159.608 217.921 159.744 217.809 159.856C217.713 159.952 217.585 160 217.425 160H216.297ZM226.117 160.24C224.453 160.24 223.197 159.696 222.349 158.608C221.501 157.52 221.053 156.144 221.005 154.48L220.981 153.76L221.005 153.04C221.053 151.392 221.501 150.024 222.349 148.936C223.197 147.832 224.453 147.28 226.117 147.28C227.765 147.28 229.061 147.864 230.005 149.032V143.512C230.005 143.352 230.053 143.224 230.149 143.128C230.261 143.016 230.397 142.96 230.557 142.96H231.709C231.869 142.96 231.997 143.016 232.093 143.128C232.205 143.224 232.261 143.352 232.261 143.512V159.448C232.261 159.608 232.205 159.744 232.093 159.856C231.997 159.952 231.869 160 231.709 160H230.629C230.469 160 230.333 159.952 230.221 159.856C230.125 159.744 230.077 159.608 230.077 159.448V158.44C229.149 159.64 227.829 160.24 226.117 160.24ZM226.621 158.296C227.725 158.296 228.549 157.936 229.093 157.216C229.653 156.48 229.957 155.608 230.005 154.6C230.021 154.424 230.029 154.12 230.029 153.688C230.029 153.24 230.021 152.928 230.005 152.752C229.973 151.808 229.669 150.984 229.093 150.28C228.517 149.576 227.693 149.224 226.621 149.224C225.485 149.224 224.653 149.576 224.125 150.28C223.613 150.984 223.333 151.912 223.285 153.064L223.261 153.76C223.261 156.784 224.381 158.296 226.621 158.296ZM236.191 145.192C236.031 145.192 235.895 145.144 235.783 145.048C235.687 144.936 235.639 144.8 235.639 144.64V143.344C235.639 143.184 235.687 143.048 235.783 142.936C235.895 142.824 236.031 142.768 236.191 142.768H237.703C237.863 142.768 237.999 142.824 238.111 142.936C238.223 143.048 238.279 143.184 238.279 143.344V144.64C238.279 144.8 238.223 144.936 238.111 145.048C237.999 145.144 237.863 145.192 237.703 145.192H236.191ZM236.383 160C236.223 160 236.087 159.952 235.975 159.856C235.879 159.744 235.831 159.608 235.831 159.448V148.072C235.831 147.912 235.879 147.784 235.975 147.688C236.087 147.576 236.223 147.52 236.383 147.52H237.535C237.695 147.52 237.823 147.576 237.919 147.688C238.031 147.784 238.087 147.912 238.087 148.072V159.448C238.087 159.608 238.031 159.744 237.919 159.856C237.823 159.952 237.695 160 237.535 160H236.383ZM242.195 160C242.035 160 241.899 159.952 241.787 159.856C241.691 159.744 241.643 159.608 241.643 159.448V148.072C241.643 147.912 241.691 147.784 241.787 147.688C241.899 147.576 242.035 147.52 242.195 147.52H243.323C243.483 147.52 243.611 147.576 243.707 147.688C243.819 147.784 243.875 147.912 243.875 148.072V149.128C244.339 148.536 244.883 148.08 245.507 147.76C246.147 147.44 246.939 147.28 247.883 147.28C249.419 147.28 250.611 147.776 251.459 148.768C252.323 149.744 252.755 151.048 252.755 152.68V159.448C252.755 159.608 252.699 159.744 252.587 159.856C252.491 159.952 252.363 160 252.203 160H251.003C250.843 160 250.707 159.952 250.595 159.856C250.499 159.744 250.451 159.608 250.451 159.448V152.8C250.451 151.664 250.171 150.784 249.611 150.16C249.067 149.536 248.275 149.224 247.235 149.224C246.227 149.224 245.427 149.544 244.835 150.184C244.243 150.808 243.947 151.68 243.947 152.8V159.448C243.947 159.608 243.891 159.744 243.779 159.856C243.683 159.952 243.555 160 243.395 160H242.195ZM261.31 165.28C259.998 165.28 258.942 165.056 258.142 164.608C257.342 164.176 256.774 163.68 256.438 163.12C256.102 162.56 255.918 162.056 255.886 161.608C255.87 161.448 255.918 161.312 256.03 161.2C256.158 161.088 256.294 161.032 256.438 161.032H257.59C257.734 161.032 257.854 161.064 257.95 161.128C258.046 161.208 258.126 161.344 258.19 161.536C258.382 162.048 258.694 162.488 259.126 162.856C259.574 163.24 260.262 163.432 261.19 163.432C262.374 163.432 263.246 163.176 263.806 162.664C264.366 162.168 264.646 161.28 264.646 160V158.368C264.23 158.896 263.702 159.32 263.062 159.64C262.422 159.944 261.662 160.096 260.782 160.096C259.086 160.096 257.814 159.56 256.966 158.488C256.134 157.4 255.694 156.024 255.646 154.36L255.622 153.688L255.646 153.04C255.694 151.392 256.142 150.024 256.99 148.936C257.838 147.832 259.102 147.28 260.782 147.28C262.462 147.28 263.774 147.896 264.718 149.128V148.096C264.718 147.936 264.766 147.8 264.862 147.688C264.974 147.576 265.11 147.52 265.27 147.52H266.374C266.534 147.52 266.67 147.576 266.782 147.688C266.894 147.8 266.95 147.936 266.95 148.096V159.736C266.95 163.432 265.07 165.28 261.31 165.28ZM261.262 158.176C262.35 158.176 263.174 157.816 263.734 157.096C264.294 156.376 264.598 155.52 264.646 154.528C264.662 154.384 264.67 154.104 264.67 153.688C264.67 153.288 264.662 153.016 264.646 152.872C264.598 151.88 264.294 151.024 263.734 150.304C263.19 149.584 262.366 149.224 261.262 149.224C260.126 149.224 259.302 149.576 258.79 150.28C258.278 150.984 257.998 151.912 257.95 153.064L257.926 153.688L257.95 154.336C257.998 155.472 258.278 156.4 258.79 157.12C259.302 157.824 260.126 158.176 261.262 158.176ZM279.17 160C278.754 160 278.506 159.784 278.426 159.352L275.33 143.944C275.314 143.864 275.306 143.776 275.306 143.68C275.306 143.552 275.354 143.44 275.45 143.344C275.546 143.248 275.658 143.2 275.786 143.2H277.034C277.37 143.2 277.562 143.336 277.61 143.608L280.058 155.992L282.65 147.496C282.794 147.112 283.05 146.92 283.418 146.92H284.306C284.514 146.92 284.674 146.976 284.786 147.088C284.914 147.2 285.002 147.336 285.05 147.496L287.666 155.992L290.09 143.608C290.138 143.336 290.338 143.2 290.69 143.2H291.938C292.066 143.2 292.178 143.248 292.274 143.344C292.37 143.44 292.418 143.552 292.418 143.68L292.394 143.944L289.298 159.352C289.202 159.784 288.954 160 288.554 160H287.618C287.202 160 286.938 159.8 286.826 159.4L283.85 150.256L280.898 159.4C280.77 159.8 280.506 160 280.106 160H279.17ZM299.721 160.24C298.073 160.24 296.753 159.736 295.761 158.728C294.785 157.704 294.249 156.312 294.153 154.552L294.129 153.736L294.153 152.944C294.265 151.216 294.809 149.84 295.785 148.816C296.777 147.792 298.081 147.28 299.697 147.28C301.473 147.28 302.849 147.848 303.825 148.984C304.801 150.104 305.289 151.624 305.289 153.544V153.952C305.289 154.112 305.233 154.248 305.121 154.36C305.025 154.456 304.897 154.504 304.737 154.504H296.433V154.72C296.481 155.76 296.793 156.648 297.369 157.384C297.961 158.104 298.737 158.464 299.697 158.464C300.433 158.464 301.033 158.32 301.497 158.032C301.977 157.728 302.329 157.416 302.553 157.096C302.697 156.904 302.801 156.792 302.865 156.76C302.945 156.712 303.081 156.688 303.273 156.688H304.449C304.593 156.688 304.713 156.728 304.809 156.808C304.905 156.888 304.953 157 304.953 157.144C304.953 157.496 304.729 157.92 304.281 158.416C303.849 158.912 303.233 159.344 302.433 159.712C301.649 160.064 300.745 160.24 299.721 160.24ZM303.009 152.848V152.776C303.009 151.672 302.705 150.776 302.097 150.088C301.505 149.384 300.705 149.032 299.697 149.032C298.689 149.032 297.889 149.384 297.297 150.088C296.721 150.776 296.433 151.672 296.433 152.776V152.848H303.009ZM314.327 160.24C312.599 160.24 311.287 159.64 310.391 158.44V159.448C310.391 159.608 310.335 159.744 310.223 159.856C310.127 159.952 309.999 160 309.839 160H308.735C308.575 160 308.439 159.952 308.327 159.856C308.231 159.744 308.183 159.608 308.183 159.448V143.512C308.183 143.352 308.231 143.224 308.327 143.128C308.439 143.016 308.575 142.96 308.735 142.96H309.911C310.071 142.96 310.199 143.016 310.295 143.128C310.391 143.224 310.439 143.352 310.439 143.512V149.032C311.383 147.864 312.679 147.28 314.327 147.28C315.991 147.28 317.247 147.832 318.095 148.936C318.943 150.024 319.399 151.392 319.463 153.04C319.479 153.216 319.487 153.456 319.487 153.76C319.487 154.064 319.479 154.304 319.463 154.48C319.399 156.144 318.943 157.52 318.095 158.608C317.247 159.696 315.991 160.24 314.327 160.24ZM313.823 158.296C314.959 158.296 315.783 157.944 316.295 157.24C316.823 156.536 317.111 155.608 317.159 154.456C317.175 154.296 317.183 154.064 317.183 153.76C317.183 150.736 316.063 149.224 313.823 149.224C312.751 149.224 311.927 149.576 311.351 150.28C310.775 150.984 310.471 151.808 310.439 152.752L310.415 153.688L310.439 154.6C310.487 155.608 310.783 156.48 311.327 157.216C311.887 157.936 312.719 158.296 313.823 158.296ZM329.179 160C329.019 160 328.883 159.952 328.771 159.856C328.675 159.744 328.627 159.608 328.627 159.448V143.776C328.627 143.6 328.675 143.464 328.771 143.368C328.883 143.256 329.019 143.2 329.179 143.2H338.971C339.147 143.2 339.283 143.256 339.379 143.368C339.491 143.464 339.547 143.6 339.547 143.776V144.736C339.547 144.896 339.491 145.032 339.379 145.144C339.283 145.24 339.147 145.288 338.971 145.288H330.955V150.88H338.491C338.667 150.88 338.803 150.936 338.899 151.048C339.011 151.144 339.067 151.28 339.067 151.456V152.416C339.067 152.576 339.011 152.712 338.899 152.824C338.787 152.92 338.651 152.968 338.491 152.968H330.955V159.448C330.955 159.608 330.899 159.744 330.787 159.856C330.675 159.952 330.539 160 330.379 160H329.179ZM347.185 160.24C345.425 160.24 344.057 159.744 343.081 158.752C342.121 157.76 341.609 156.44 341.545 154.792L341.521 153.76L341.545 152.728C341.609 151.096 342.129 149.784 343.105 148.792C344.081 147.784 345.441 147.28 347.185 147.28C348.929 147.28 350.289 147.784 351.265 148.792C352.241 149.784 352.761 151.096 352.825 152.728C352.841 152.904 352.849 153.248 352.849 153.76C352.849 154.272 352.841 154.616 352.825 154.792C352.761 156.44 352.241 157.76 351.265 158.752C350.305 159.744 348.945 160.24 347.185 160.24ZM347.185 158.392C348.193 158.392 348.985 158.072 349.561 157.432C350.153 156.792 350.473 155.872 350.521 154.672C350.537 154.512 350.545 154.208 350.545 153.76C350.545 153.312 350.537 153.008 350.521 152.848C350.473 151.648 350.153 150.728 349.561 150.088C348.985 149.448 348.193 149.128 347.185 149.128C346.177 149.128 345.377 149.448 344.785 150.088C344.193 150.728 343.881 151.648 343.849 152.848L343.825 153.76L343.849 154.672C343.881 155.872 344.193 156.792 344.785 157.432C345.377 158.072 346.177 158.392 347.185 158.392ZM356.406 160C356.246 160 356.11 159.952 355.998 159.856C355.902 159.744 355.854 159.608 355.854 159.448V148.096C355.854 147.936 355.902 147.8 355.998 147.688C356.11 147.576 356.246 147.52 356.406 147.52H357.51C357.67 147.52 357.806 147.576 357.918 147.688C358.03 147.8 358.086 147.936 358.086 148.096V149.152C358.742 148.064 359.862 147.52 361.446 147.52H362.382C362.542 147.52 362.67 147.576 362.766 147.688C362.878 147.784 362.934 147.912 362.934 148.072V149.056C362.934 149.216 362.878 149.344 362.766 149.44C362.67 149.536 362.542 149.584 362.382 149.584H360.942C360.078 149.584 359.398 149.84 358.902 150.352C358.406 150.848 358.158 151.528 358.158 152.392V159.448C358.158 159.608 358.102 159.744 357.99 159.856C357.878 159.952 357.742 160 357.582 160H356.406ZM371.156 160C370.996 160 370.86 159.952 370.748 159.856C370.652 159.744 370.604 159.608 370.604 159.448V143.776C370.604 143.6 370.652 143.464 370.748 143.368C370.86 143.256 370.996 143.2 371.156 143.2H377.252C379.06 143.2 380.484 143.64 381.524 144.52C382.564 145.4 383.084 146.672 383.084 148.336C383.084 150 382.564 151.272 381.524 152.152C380.5 153.016 379.076 153.448 377.252 153.448H373.004V159.448C373.004 159.608 372.948 159.744 372.836 159.856C372.724 159.952 372.588 160 372.428 160H371.156ZM377.132 151.432C378.3 151.432 379.18 151.168 379.772 150.64C380.38 150.112 380.684 149.344 380.684 148.336C380.684 147.328 380.388 146.56 379.796 146.032C379.204 145.488 378.316 145.216 377.132 145.216H372.98V151.432H377.132ZM390.518 160.24C388.87 160.24 387.55 159.736 386.558 158.728C385.582 157.704 385.046 156.312 384.95 154.552L384.926 153.736L384.95 152.944C385.062 151.216 385.606 149.84 386.582 148.816C387.574 147.792 388.878 147.28 390.494 147.28C392.27 147.28 393.646 147.848 394.622 148.984C395.598 150.104 396.086 151.624 396.086 153.544V153.952C396.086 154.112 396.03 154.248 395.918 154.36C395.822 154.456 395.694 154.504 395.534 154.504H387.23V154.72C387.278 155.76 387.59 156.648 388.166 157.384C388.758 158.104 389.534 158.464 390.494 158.464C391.23 158.464 391.83 158.32 392.294 158.032C392.774 157.728 393.126 157.416 393.35 157.096C393.494 156.904 393.598 156.792 393.662 156.76C393.742 156.712 393.878 156.688 394.07 156.688H395.246C395.39 156.688 395.51 156.728 395.606 156.808C395.702 156.888 395.75 157 395.75 157.144C395.75 157.496 395.526 157.92 395.078 158.416C394.646 158.912 394.03 159.344 393.23 159.712C392.446 160.064 391.542 160.24 390.518 160.24ZM393.806 152.848V152.776C393.806 151.672 393.502 150.776 392.894 150.088C392.302 149.384 391.502 149.032 390.494 149.032C389.486 149.032 388.686 149.384 388.094 150.088C387.518 150.776 387.23 151.672 387.23 152.776V152.848H393.806ZM399.532 164.56C399.372 164.56 399.236 164.504 399.124 164.392C399.028 164.296 398.98 164.168 398.98 164.008V148.072C398.98 147.912 399.028 147.784 399.124 147.688C399.236 147.576 399.372 147.52 399.532 147.52H400.636C400.796 147.52 400.924 147.576 401.02 147.688C401.132 147.784 401.188 147.912 401.188 148.072V149.128C402.084 147.896 403.396 147.28 405.124 147.28C406.804 147.28 408.06 147.808 408.892 148.864C409.74 149.92 410.196 151.28 410.26 152.944C410.276 153.12 410.284 153.392 410.284 153.76C410.284 154.128 410.276 154.4 410.26 154.576C410.196 156.224 409.74 157.584 408.892 158.656C408.044 159.712 406.788 160.24 405.124 160.24C403.46 160.24 402.164 159.64 401.236 158.44V164.008C401.236 164.168 401.188 164.296 401.092 164.392C400.996 164.504 400.868 164.56 400.708 164.56H399.532ZM404.62 158.296C405.756 158.296 406.58 157.944 407.092 157.24C407.62 156.536 407.908 155.608 407.956 154.456C407.972 154.296 407.98 154.064 407.98 153.76C407.98 150.736 406.86 149.224 404.62 149.224C403.516 149.224 402.684 149.592 402.124 150.328C401.58 151.048 401.284 151.912 401.236 152.92L401.212 153.832L401.236 154.768C401.268 155.712 401.572 156.536 402.148 157.24C402.724 157.944 403.548 158.296 404.62 158.296ZM418.365 160.24C416.605 160.24 415.237 159.744 414.261 158.752C413.301 157.76 412.789 156.44 412.725 154.792L412.701 153.76L412.725 152.728C412.789 151.096 413.309 149.784 414.285 148.792C415.261 147.784 416.621 147.28 418.365 147.28C420.109 147.28 421.469 147.784 422.445 148.792C423.421 149.784 423.941 151.096 424.005 152.728C424.021 152.904 424.029 153.248 424.029 153.76C424.029 154.272 424.021 154.616 424.005 154.792C423.941 156.44 423.421 157.76 422.445 158.752C421.485 159.744 420.125 160.24 418.365 160.24ZM418.365 158.392C419.373 158.392 420.165 158.072 420.741 157.432C421.333 156.792 421.653 155.872 421.701 154.672C421.717 154.512 421.725 154.208 421.725 153.76C421.725 153.312 421.717 153.008 421.701 152.848C421.653 151.648 421.333 150.728 420.741 150.088C420.165 149.448 419.373 149.128 418.365 149.128C417.357 149.128 416.557 149.448 415.965 150.088C415.373 150.728 415.061 151.648 415.029 152.848L415.005 153.76L415.029 154.672C415.061 155.872 415.373 156.792 415.965 157.432C416.557 158.072 417.357 158.392 418.365 158.392ZM427.61 160C427.45 160 427.314 159.952 427.202 159.856C427.106 159.744 427.058 159.608 427.058 159.448V143.512C427.058 143.352 427.106 143.224 427.202 143.128C427.314 143.016 427.45 142.96 427.61 142.96H428.738C428.898 142.96 429.026 143.016 429.122 143.128C429.234 143.224 429.29 143.352 429.29 143.512V159.448C429.29 159.608 429.234 159.744 429.122 159.856C429.026 159.952 428.898 160 428.738 160H427.61ZM437.862 160.24C436.214 160.24 434.894 159.736 433.902 158.728C432.926 157.704 432.39 156.312 432.294 154.552L432.27 153.736L432.294 152.944C432.406 151.216 432.95 149.84 433.926 148.816C434.918 147.792 436.222 147.28 437.838 147.28C439.614 147.28 440.99 147.848 441.966 148.984C442.942 150.104 443.43 151.624 443.43 153.544V153.952C443.43 154.112 443.374 154.248 443.262 154.36C443.166 154.456 443.038 154.504 442.878 154.504H434.574V154.72C434.622 155.76 434.934 156.648 435.51 157.384C436.102 158.104 436.878 158.464 437.838 158.464C438.574 158.464 439.174 158.32 439.638 158.032C440.118 157.728 440.47 157.416 440.694 157.096C440.838 156.904 440.942 156.792 441.006 156.76C441.086 156.712 441.222 156.688 441.414 156.688H442.59C442.734 156.688 442.854 156.728 442.95 156.808C443.046 156.888 443.094 157 443.094 157.144C443.094 157.496 442.87 157.92 442.422 158.416C441.99 158.912 441.374 159.344 440.574 159.712C439.79 160.064 438.886 160.24 437.862 160.24ZM441.15 152.848V152.776C441.15 151.672 440.846 150.776 440.238 150.088C439.646 149.384 438.846 149.032 437.838 149.032C436.83 149.032 436.03 149.384 435.438 150.088C434.862 150.776 434.574 151.672 434.574 152.776V152.848H441.15Z" fill="white"/>
<rect width="136" height="140" fill="#F77B63"/>
<path d="M48.1016 109C47.4349 109 46.8682 108.8 46.4016 108.4C46.0016 107.933 45.8016 107.367 45.8016 106.7V41.4C45.8016 40.6667 46.0016 40.1 46.4016 39.7C46.8682 39.2333 47.4349 39 48.1016 39H75.5016C82.6349 39 88.0016 40.7 91.6016 44.1C95.2016 47.5 97.0016 51.9667 97.0016 57.5C97.0016 61.2333 96.1349 64.3333 94.4016 66.8C92.7349 69.2667 90.7349 71.0667 88.4016 72.2C91.2016 73.6 93.5682 75.7667 95.5016 78.7C97.4349 81.6333 98.4016 85 98.4016 88.8C98.4016 92.5333 97.5349 95.9333 95.8016 99C94.1349 102.067 91.6349 104.5 88.3016 106.3C84.9682 108.1 80.9682 109 76.3016 109H48.1016ZM74.0016 68.6C78.2016 68.6 81.4016 67.6333 83.6016 65.7C85.8682 63.7667 87.0016 61.0667 87.0016 57.6C87.0016 54.2 85.9016 51.6 83.7016 49.8C81.5016 48 78.2682 47.1 74.0016 47.1H55.6016V68.6H74.0016ZM75.0016 100.9C79.2016 100.9 82.4682 99.7667 84.8016 97.5C87.2016 95.2333 88.4016 92.3333 88.4016 88.8C88.4016 85.1333 87.2016 82.2 84.8016 80C82.4682 77.7333 79.2016 76.6 75.0016 76.6H55.6016V100.9H75.0016Z" fill="#8C7AE6"/>
<path d="M140.653 105C133.786 105 128.286 102.9 124.153 98.7C120.086 94.4333 117.853 88.6333 117.453 81.3L117.353 77.9L117.453 74.6C117.92 67.4 120.186 61.6667 124.253 57.4C128.386 53.1333 133.82 51 140.553 51C147.953 51 153.686 53.3667 157.753 58.1C161.82 62.7667 163.853 69.1 163.853 77.1V78.8C163.853 79.4667 163.62 80.0333 163.153 80.5C162.753 80.9 162.22 81.1 161.553 81.1H126.953V82C127.153 86.3333 128.453 90.0333 130.853 93.1C133.32 96.1 136.553 97.6 140.553 97.6C143.62 97.6 146.12 97 148.053 95.8C150.053 94.5333 151.52 93.2333 152.453 91.9C153.053 91.1 153.486 90.6333 153.753 90.5C154.086 90.3 154.653 90.2 155.453 90.2H160.353C160.953 90.2 161.453 90.3667 161.853 90.7C162.253 91.0333 162.453 91.5 162.453 92.1C162.453 93.5667 161.52 95.3333 159.653 97.4C157.853 99.4667 155.286 101.267 151.953 102.8C148.686 104.267 144.92 105 140.653 105ZM154.353 74.2V73.9C154.353 69.3 153.086 65.5667 150.553 62.7C148.086 59.7667 144.753 58.3 140.553 58.3C136.353 58.3 133.02 59.7667 130.553 62.7C128.153 65.5667 126.953 69.3 126.953 73.9V74.2H154.353ZM178.11 104C177.443 104 176.877 103.8 176.41 103.4C176.01 102.933 175.81 102.367 175.81 101.7V54.3C175.81 53.6333 176.01 53.1 176.41 52.7C176.877 52.2333 177.443 52 178.11 52H182.81C183.477 52 184.01 52.2333 184.41 52.7C184.877 53.1 185.11 53.6333 185.11 54.3V58.7C187.043 56.2333 189.31 54.3333 191.91 53C194.577 51.6667 197.877 51 201.81 51C208.21 51 213.177 53.0667 216.71 57.2C220.31 61.2667 222.11 66.7 222.11 73.5V101.7C222.11 102.367 221.877 102.933 221.41 103.4C221.01 103.8 220.477 104 219.81 104H214.81C214.143 104 213.577 103.8 213.11 103.4C212.71 102.933 212.51 102.367 212.51 101.7V74C212.51 69.2667 211.343 65.6 209.01 63C206.743 60.4 203.443 59.1 199.11 59.1C194.91 59.1 191.577 60.4333 189.11 63.1C186.643 65.7 185.41 69.3333 185.41 74V101.7C185.41 102.367 185.177 102.933 184.71 103.4C184.31 103.8 183.777 104 183.11 104H178.11ZM238.955 42.3C238.288 42.3 237.721 42.1 237.255 41.7C236.855 41.2333 236.655 40.6667 236.655 40V34.6C236.655 33.9333 236.855 33.3667 237.255 32.9C237.721 32.4333 238.288 32.2 238.955 32.2H245.355C246.021 32.2 246.588 32.4333 247.055 32.9C247.521 33.3667 247.755 33.9333 247.755 34.6V40C247.755 40.6667 247.521 41.2333 247.055 41.7C246.588 42.1 246.021 42.3 245.355 42.3H238.955ZM227.955 123C227.288 123 226.755 122.767 226.355 122.3C225.888 121.9 225.655 121.367 225.655 120.7V117.3C225.655 116.633 225.888 116.067 226.355 115.6C226.755 115.2 227.288 115 227.955 115H229.355C232.621 115 234.788 114.167 235.855 112.5C236.921 110.833 237.455 108.367 237.455 105.1V54.3C237.455 53.6333 237.655 53.1 238.055 52.7C238.521 52.2333 239.088 52 239.755 52H244.655C245.321 52 245.855 52.2333 246.255 52.7C246.721 53.1 246.955 53.6333 246.955 54.3V105.2C246.955 117.067 241.255 123 229.855 123H227.955ZM276.345 105C273.079 105 270.045 104.333 267.245 103C264.445 101.667 262.212 99.8667 260.545 97.6C258.945 95.2667 258.145 92.7 258.145 89.9C258.145 85.5 259.945 81.9 263.545 79.1C267.212 76.2333 272.145 74.3667 278.345 73.5L293.245 71.4V68.5C293.245 61.7 289.345 58.3 281.545 58.3C278.612 58.3 276.212 58.9333 274.345 60.2C272.479 61.4 271.079 62.8333 270.145 64.5C269.945 65.1 269.679 65.5333 269.345 65.8C269.079 66.0667 268.679 66.2 268.145 66.2H263.845C263.245 66.2 262.712 66 262.245 65.6C261.845 65.1333 261.645 64.6 261.645 64C261.712 62.4 262.445 60.6 263.845 58.6C265.312 56.5333 267.545 54.7667 270.545 53.3C273.545 51.7667 277.245 51 281.645 51C289.112 51 294.479 52.7667 297.745 56.3C301.012 59.7667 302.645 64.1 302.645 69.3V101.7C302.645 102.367 302.412 102.933 301.945 103.4C301.545 103.8 301.012 104 300.345 104H295.745C295.079 104 294.512 103.8 294.045 103.4C293.645 102.933 293.445 102.367 293.445 101.7V97.4C291.979 99.5333 289.845 101.333 287.045 102.8C284.245 104.267 280.679 105 276.345 105ZM278.445 97.5C282.779 97.5 286.312 96.1 289.045 93.3C291.845 90.4333 293.245 86.3333 293.245 81V78.2L281.645 79.9C276.912 80.5667 273.345 81.7 270.945 83.3C268.545 84.8333 267.345 86.8 267.345 89.2C267.345 91.8667 268.445 93.9333 270.645 95.4C272.845 96.8 275.445 97.5 278.445 97.5Z" fill="white"/>
<path d="M320.621 104C319.954 104 319.388 103.8 318.921 103.4C318.521 102.933 318.321 102.367 318.321 101.7V36.4C318.321 35.6667 318.521 35.1 318.921 34.7C319.388 34.2333 319.954 34 320.621 34H325.621C326.688 34 327.554 34.5333 328.221 35.6L349.321 76L370.621 35.6C370.754 35.2 371.021 34.8333 371.421 34.5C371.888 34.1667 372.454 34 373.121 34H378.021C378.754 34 379.321 34.2333 379.721 34.7C380.188 35.1 380.421 35.6667 380.421 36.4V101.7C380.421 102.367 380.188 102.933 379.721 103.4C379.254 103.8 378.688 104 378.021 104H373.121C372.454 104 371.888 103.8 371.421 103.4C371.021 102.933 370.821 102.367 370.821 101.7V52.5L354.121 85.1C353.454 86.5 352.388 87.2 350.921 87.2H347.821C346.354 87.2 345.288 86.5 344.621 85.1L327.821 52.5V101.7C327.821 102.367 327.588 102.933 327.121 103.4C326.721 103.8 326.188 104 325.521 104H320.621ZM400.016 104C399.349 104 398.782 103.8 398.316 103.4C397.916 102.933 397.716 102.367 397.716 101.7V36.4C397.716 35.6667 397.916 35.1 398.316 34.7C398.782 34.2333 399.349 34 400.016 34H404.616C405.816 34 406.649 34.4667 407.116 35.4L440.316 86.4V36.4C440.316 35.6667 440.516 35.1 440.916 34.7C441.382 34.2333 441.949 34 442.616 34H447.416C448.149 34 448.716 34.2333 449.116 34.7C449.582 35.1 449.816 35.6667 449.816 36.4V101.6C449.816 102.267 449.582 102.833 449.116 103.3C448.716 103.767 448.182 104 447.516 104H442.716C441.716 104 440.916 103.533 440.316 102.6L407.216 52.1V101.7C407.216 102.367 406.982 102.933 406.516 103.4C406.049 103.8 405.482 104 404.816 104H400.016Z" fill="#F77B63"/>
</svg>
