<svg width="147" height="87" viewBox="0 0 147 87" fill="none" xmlns="http://www.w3.org/2000/svg">
<path d="M0 0H136L94 42L136 85H0V0Z" fill="#F43E54"/>
<path d="M104.42 42.3508L145.328 0.979455L145.328 42.3508L146 85.432L104.42 42.3508Z" fill="#F77B63"/>
<circle cx="49" cy="42" r="40" fill="black"/>
<path d="M35.7559 49V23.4062H44.123C46.9004 23.4062 48.9863 23.9805 50.3809 25.1289C51.7871 26.2773 52.4902 27.9766 52.4902 30.2266C52.4902 31.4219 52.1504 32.4824 51.4707 33.4082C50.791 34.3223 49.8652 35.0312 48.6934 35.5352C50.0762 35.9219 51.166 36.6602 51.9629 37.75C52.7715 38.8281 53.1758 40.1172 53.1758 41.6172C53.1758 43.9141 52.4316 45.7188 50.9434 47.0312C49.4551 48.3438 47.3516 49 44.6328 49H35.7559ZM39.1309 37.0293V46.2402H44.7031C46.2734 46.2402 47.5098 45.8359 48.4121 45.0273C49.3262 44.207 49.7832 43.082 49.7832 41.6523C49.7832 38.5703 48.1074 37.0293 44.7559 37.0293H39.1309ZM39.1309 34.3223H44.2285C45.7051 34.3223 46.8828 33.9531 47.7617 33.2148C48.6523 32.4766 49.0977 31.4746 49.0977 30.209C49.0977 28.8027 48.6875 27.7832 47.8672 27.1504C47.0469 26.5059 45.7988 26.1836 44.123 26.1836H39.1309V34.3223Z" fill="#F43E54"/>
<path d="M63.3145 17.2344H69.9111V52.4736C69.9111 57.236 68.4756 60.9616 65.6045 63.6504C62.7562 66.3392 58.9508 67.6836 54.1885 67.6836C49.2438 67.6836 45.3929 66.4189 42.6357 63.8896C39.8786 61.3604 38.5 57.8171 38.5 53.2598H45.0625C45.0625 56.1081 45.8372 58.3298 47.3867 59.9248C48.959 61.5199 51.2262 62.3174 54.1885 62.3174C56.9001 62.3174 59.0876 61.4629 60.751 59.7539C62.4372 58.0449 63.2917 55.6523 63.3145 52.5762V17.2344Z" fill="white"/>
</svg>
