<svg width="85" height="60" viewBox="0 0 85 60" fill="none" xmlns="http://www.w3.org/2000/svg">
<path d="M81.9941 36.3696C82.5984 34.4186 82.92 32.3934 82.92 30.315C82.92 14.7316 65.023 2.0982 42.9457 2.0982C40.615 2.0982 38.3313 2.2404 36.1094 2.511C32.5369 0.9222 28.3101 0 23.7762 0C10.9729 0 0.594147 7.327 0.594147 16.3632C0.594147 19.384 1.75836 22.2112 3.78051 24.6402C3.2504 26.4734 2.97188 28.3708 2.97188 30.3148C2.97188 45.8982 20.8686 58.5316 42.9457 58.5316C45.4464 58.5316 47.8924 58.3682 50.2653 58.0582C53.5287 59.2962 57.2602 60 61.2241 60C74.0276 60 84.4058 52.6738 84.4058 43.6368C84.4058 41.0254 83.5351 38.5594 81.9941 36.3696ZM63.4474 43.7996C61.5981 45.6468 58.8659 47.1106 55.3259 48.1494C51.8202 49.178 47.6178 49.6996 42.8343 49.6996C37.0929 49.6996 32.2793 48.9868 28.5223 47.58C25.8366 46.5558 23.6218 45.1688 21.9408 43.4574C20.2427 41.7284 19.3814 40.0128 19.3814 38.3586C19.3814 37.3246 19.9424 36.4282 21.0491 35.6946C22.1442 34.9674 23.5475 34.599 25.2209 34.599C26.5945 34.599 27.7791 34.8902 28.7425 35.4646C29.6624 36.015 30.4521 36.8294 31.0865 37.8812C31.7948 39.0264 32.5672 39.9934 33.3829 40.755C34.1669 41.4876 35.2948 42.1034 36.7353 42.584C38.1845 43.0684 40.1381 43.3138 42.5411 43.3138C45.8456 43.3138 48.5551 42.8158 50.5931 41.8334C52.5835 40.874 53.5514 39.7224 53.5514 38.3126C53.5514 37.1986 53.0462 36.3232 52.0075 35.6362C50.9195 34.918 49.4847 34.359 47.7419 33.9756C45.9252 33.5758 43.4588 33.1446 40.4081 32.6938C36.2754 32.069 32.7624 31.3278 29.9645 30.49C29.9537 30.487 29.9427 30.4838 29.9319 30.4804C27.0654 29.6198 24.7551 28.4264 23.065 26.9332C21.3483 25.4168 20.4785 23.5144 20.4785 21.2782C20.4785 19.1466 21.3917 17.2252 23.1928 15.5678C24.9804 13.922 27.591 12.643 30.9519 11.7654C34.2694 10.8994 38.2157 10.4606 42.6808 10.4606C46.2508 10.4606 49.3895 10.7516 52.0092 11.3266C54.6439 11.9058 56.8653 12.688 58.6106 13.6504C60.3687 14.62 61.6763 15.6574 62.4977 16.7348C63.3273 17.823 63.7477 18.906 63.7477 19.9536C63.7477 20.9618 63.1961 21.878 62.1081 22.6766C61.0136 23.4798 59.6323 23.8876 58.0026 23.8876C56.5222 23.8876 55.3636 23.6326 54.5595 23.1298C53.8112 22.663 53.0355 21.9352 52.1738 20.888C51.1771 19.5512 49.9709 18.4974 48.5868 17.7548C47.2438 17.0336 44.9981 16.6674 41.9129 16.6674C39.0476 16.6674 36.7172 17.0734 34.9868 17.8742C33.3194 18.6458 32.5094 19.5306 32.5094 20.5788C32.5094 21.2218 32.77 21.759 33.3064 22.2214C33.8745 22.7112 34.6757 23.1414 35.6887 23.499C36.7393 23.8718 37.8219 24.168 38.9065 24.3794C40.0174 24.597 41.8815 24.9194 44.4377 25.3362C47.1311 25.7444 49.6394 26.194 51.9228 26.6752C52.3815 26.7718 52.8349 26.8696 53.2746 26.9688C55.9365 27.5702 58.2369 28.312 60.1128 29.1732C62.0276 30.0534 63.5437 31.1838 64.6195 32.5332C65.6982 33.8874 66.2447 35.5596 66.2447 37.502C66.2442 39.827 65.3029 41.9454 63.4474 43.7996Z" fill="white"/>
</svg>
