<svg width="65" height="56" viewBox="0 0 65 56" fill="none" xmlns="http://www.w3.org/2000/svg">
<path d="M65 27.2796C65 42.3447 50.7143 54.5574 33.0882 54.5574C27.4947 54.5574 22.2404 53.3248 17.6664 51.1664L0 56L5.7588 41.3604C2.85502 37.2518 1.1827 32.4273 1.1827 27.2778C1.18482 12.2127 15.4663 0 33.0924 0C50.7164 0.00365213 65 12.2146 65 27.2796ZM33.0861 4.34969C18.2938 4.34969 6.26113 14.6378 6.26113 27.2851C6.26113 32.3031 8.16024 36.9486 11.3713 40.7286L8.02247 49.2435L18.3277 46.4223C22.5668 48.8181 27.6388 50.2132 33.0861 50.2132C47.8783 50.2132 59.9152 39.927 59.9152 27.2796C59.9195 14.6378 47.8805 4.34969 33.0861 4.34969ZM49.2031 33.5631C49.0038 33.2874 48.4824 33.1194 47.7024 32.7834C46.9245 32.4474 43.0733 30.8313 42.3591 30.6122C41.6384 30.3876 41.117 30.2744 40.5956 30.9445C40.0805 31.6147 38.5799 33.1194 38.12 33.5686C37.6643 34.016 37.2086 34.0726 36.4265 33.7421C35.6443 33.4024 33.1221 32.7012 30.1335 30.4241C27.8084 28.6492 26.2378 26.4634 25.7842 25.7932C25.3243 25.1249 25.7376 24.7633 26.1255 24.431C26.4752 24.1296 26.9076 23.6494 27.2997 23.2568C27.6918 22.8678 27.8211 22.5921 28.0818 22.1447C28.3383 21.6973 28.209 21.3084 28.0161 20.9706C27.8211 20.6346 26.259 17.3476 25.6041 16.0091C24.9534 14.6724 24.3027 14.8934 23.8448 14.8934C23.3891 14.8934 22.8677 14.8386 22.3463 14.8386C21.8249 14.8386 20.9771 15.0011 20.2628 15.6713C19.5485 16.3415 17.5265 17.9575 17.5265 21.2481C17.5265 24.5423 20.3264 27.7179 20.7185 28.1634C21.1128 28.6072 26.1318 35.5809 34.0822 38.2579C42.0369 40.9331 42.0369 40.0402 43.4697 39.927C44.9067 39.8137 48.0988 38.3109 48.7474 36.7514C49.4002 35.1847 49.4002 33.8425 49.2031 33.5631Z" fill="white"/>
</svg>
